<?xml version="1.0" standalone="no"?>
<!DOCTYPE svg PUBLIC "-//W3C//DTD SVG 20010904//EN"
 "http://www.w3.org/TR/2001/REC-SVG-20010904/DTD/svg10.dtd">
<svg version="1.0" xmlns="http://www.w3.org/2000/svg"
 width="256.000000pt" height="256.000000pt" viewBox="0 0 256.000000 256.000000"
 preserveAspectRatio="xMidYMid meet">
<metadata>
Created by potrace 1.14, written by Peter Selinger 2001-2017
</metadata>
<g transform="translate(0.000000,256.000000) scale(0.100000,-0.100000)"
fill="#000000" stroke="none">
<path d="M1408 1939 c-114 -23 -196 -67 -285 -154 -70 -70 -72 -71 -105 -60
-106 36 -248 5 -349 -77 -57 -47 -116 -160 -124 -240 -2 -18 -4 -36 -4 -40 -1
-4 -24 -19 -53 -34 -61 -31 -148 -115 -176 -171 -12 -22 -26 -62 -33 -89 -7
-27 -15 -53 -19 -59 -8 -11 -6 -60 3 -85 3 -8 8 -31 11 -50 10 -56 56 -141
104 -191 61 -66 165 -119 240 -122 6 0 12 -5 12 -10 0 -5 7 -4 15 3 8 7 15 8
15 3 0 -11 109 -11 127 0 6 4 15 2 19 -4 4 -8 9 -7 15 2 6 10 9 11 9 2 0 -14
26 -13 49 1 9 6 12 5 8 -1 -7 -11 121 -11 140 0 6 4 14 3 18 -3 3 -5 11 -10
16 -10 6 0 7 5 3 12 -5 7 -3 8 7 2 20 -12 38 -14 45 -3 3 5 11 6 17 2 17 -10
127 -10 134 0 2 4 10 4 17 -2 12 -10 41 -9 52 2 4 3 12 3 18 -1 16 -10 136
-10 142 0 3 5 11 5 17 1 16 -10 137 -11 143 -1 3 5 11 5 17 1 17 -11 130 -11
144 -1 6 5 14 5 16 1 4 -7 152 -10 152 -4 0 1 22 4 48 6 103 8 238 100 286
194 79 155 56 322 -63 449 -41 44 -87 72 -161 97 l-60 21 4 39 c10 102 -10
210 -52 290 -73 137 -194 236 -334 273 -112 29 -148 31 -245 11z m191 -110
c195 -45 337 -222 334 -419 -1 -52 -10 -100 -27 -149 -9 -24 -16 -45 -16 -46
0 -2 39 -5 88 -7 99 -4 138 -19 197 -76 89 -86 106 -227 40 -332 -29 -46 -60
-73 -115 -102 l-45 -23 -730 0 -730 0 -46 23 c-150 75 -215 246 -147 392 45
100 147 173 245 179 10 1 12 21 9 77 -3 67 -1 81 26 134 71 142 222 188 368
112 33 -18 60 -27 60 -21 0 16 65 111 101 148 98 98 251 142 388 110z"/>
<path d="M1288 1575 c-87 -32 -140 -102 -142 -187 -1 -40 3 -52 19 -61 50 -28
74 -11 90 61 17 76 89 110 167 77 25 -10 48 -50 48 -82 0 -27 -33 -74 -104
-148 -41 -43 -62 -96 -65 -161 -2 -41 2 -61 15 -75 40 -44 94 -8 94 64 0 50
11 68 85 149 70 76 92 130 82 203 -18 127 -162 207 -289 160z"/>
<path d="M1322 903 c-8 -3 -22 -19 -32 -35 -45 -75 52 -149 120 -91 13 12 20
30 20 54 0 56 -56 93 -108 72z"/>
</g>
</svg>
